
<svg width="23" height="18" viewBox="0 0 23 18" fill="none" xmlns="http://www.w3.org/2000/svg">
	<path d="M2 4.005H0V2.002h2V0h2.002v2.002h2v2.003h-2v2.002H2V4.005zM22 .01v1h-3.123l-.874 1.97h.005l-3.124 7.037-.31.696-.123.278h2.056a1.503 1.503 0 010 3.003h-2.012c.317.42.512.936.512 1.502a2.502 2.502 0 11-5.002 0c0-.566.194-1.082.511-1.502H6.492c.316.42.511.936.511 1.502a2.502 2.502 0 11-2.5-2.503h12.005a.501.501 0 000-1.001H4L2.234 8.01h1.095l1.324 2.982h8.704l.695-1.564.638-1.44H6.003V6.987h9.13l1.332-3.004H8.004V2.982h8.905L18.226.01H22zM6.003 15.497c0-.828-.672-1.5-1.5-1.502h-.001a1.503 1.503 0 000 3.004c.828 0 1.5-.674 1.5-1.502zm8.004 0c0-.828-.673-1.5-1.5-1.502h-.003A1.503 1.503 0 0012.506 17c.827 0 1.5-.674 1.5-1.502z" fill="currentColor"/>
</svg>