<svg width="22" height="18" viewBox="0 0 22 18" fill="none" xmlns="http://www.w3.org/2000/svg">
    <path d="M21.391 3.242C20.69 1.809 19.312.72 17.741.253A6.171 6.171 0 0015.981 0a6.4 6.4 0 00-2.96.722c-.78.41-1.408 1.013-2.026 1.616l-.14-.135c-.305-.291-.603-.6-.938-.86C9.159.754 8.282.316 7.32.129A6.7 6.7 0 006.024.001c-.515 0-1.03.061-1.532.187-1.729.43-3.254 1.638-3.96 3.214A5.726 5.726 0 000 5.782c.003.825.2 1.613.536 2.366.338.757.875 1.391 1.48 1.968l1.342 1.283L5.4 13.352l2.143 2.05 1.642 1.57c.397.38.783.832 1.353.973a1.867 1.867 0 001.713-.435l.7-.669 1.708-1.634 2.14-2.047 1.993-1.907 1.268-1.213c.072-.068.145-.136.216-.207a5.915 5.915 0 001.358-2.062c.582-1.466.45-3.122-.242-4.53zM20.704 7.4a4.938 4.938 0 01-1.132 1.722l-.128.122-.076.072-.634.607-.634.607-.273.261-1.72 1.645-1.187 1.135-.954.912-.854.817-.854.818-.723.685a.873.873 0 01-.758.17c-.22-.054-.462-.293-.719-.546l-.182-.178-.727-.696-.915-.875-1.906-1.823-.237-.227-1.356-1.296-.686-.656-.901-.863-.442-.423c-.616-.586-1.015-1.11-1.256-1.65-.3-.675-.448-1.317-.45-1.962a4.745 4.745 0 01.444-1.968c.571-1.273 1.832-2.29 3.29-2.653.416-.104.85-.157 1.29-.157.366 0 .738.037 1.106.11.76.148 1.491.492 2.174 1.022.216.168.427.373.65.59l.21.203.052.05.088.085.698.667.692-.674c.552-.539 1.122-1.095 1.791-1.446A5.384 5.384 0 0115.98 1c.508 0 1.004.071 1.476.212 1.34.398 2.475 1.321 3.038 2.47.593 1.207.669 2.563.21 3.719zm-3.817-4.272A3.167 3.167 0 0015.98 3c-.544 0-1.1.134-1.565.379-.411.215-.875.668-1.325 1.107l-2.074 2.022-2.094-2.002-.09-.085-.051-.05-.222-.215c-.182-.177-.353-.344-.48-.443-.435-.337-.882-.552-1.332-.64a3.723 3.723 0 00-.723-.072c-.277 0-.548.033-.806.097-.864.215-1.629.816-1.95 1.532-.182.405-.27.778-.268 1.143.001.361.092.739.277 1.155.128.286.393.62.808 1.015l.445.426.902.862.685.656 1.356 1.297.237.227 1.906 1.823.915.875.467.447.732-.7.854-.817.954-.912 1.186-1.135 1.72-1.645.273-.261.635-.607.634-.607.084-.08.094-.09c.299-.292.517-.628.683-1.043.25-.628.196-1.394-.148-2.095-.318-.648-1.012-1.197-1.813-1.435zm1.03 3.16c-.115.29-.255.505-.444.69l-.09.087-.088.083-.635.607-.634.607-.273.261-1.72 1.645-1.187 1.135-.953.912-.854.817-.04.039-.692-.661-1.906-1.823-.237-.227L6.81 9.165l-.686-.656-.901-.863-.447-.427c-.428-.407-.552-.625-.584-.697C4.063 6.235 4 5.989 4 5.77c0-.22.058-.459.181-.731.194-.432.72-.831 1.28-.97A2.33 2.33 0 016.024 4c.172 0 .35.018.532.054.295.058.6.208.91.449.082.064.248.225.397.37l.227.22.051.05.09.085 2.094 2.002.698.668.692-.675 2.074-2.023c.379-.37.809-.789 1.091-.937A2.44 2.44 0 0115.98 4c.218 0 .427.03.622.087.533.159 1.004.519 1.2.918.216.442.26.922.116 1.284z" fill="currentColor"/>
</svg>